<svg width="60" height="39" viewBox="0 0 60 39" fill="none" xmlns="http://www.w3.org/2000/svg">
<path id="Vector" d="M55.5471 13.7694L55.318 14.2139C55.1886 14.1471 55.0756 14.0514 54.9887 13.9332C54.9018 13.8149 54.8436 13.6776 54.8197 13.5321C54.7958 13.3865 54.8069 13.2375 54.8521 13.0971C54.8972 12.9569 54.9748 12.8299 55.0777 12.7258L55.0818 12.7216L55.0818 12.7216C55.2323 12.5728 55.3472 12.3948 55.4194 12.2003C55.4912 12.0064 55.5192 11.8002 55.5017 11.5954C55.4665 11.2294 55.2915 10.8869 55.0073 10.6366C54.7223 10.3856 54.3487 10.2465 53.9601 10.25L53.9556 10.25L52.0068 10.25C51.9429 10.2504 51.879 10.2545 51.8156 10.2622L51.6833 10.2783L51.5606 10.2264C51.53 10.2135 51.4983 10.2031 51.4658 10.1956L51.2334 10.1415L51.1292 9.92687C49.9632 7.52435 48.4458 4.43275 45.3461 2.92878C42.9977 1.79034 39.6167 1.17689 36.5605 0.852782C33.5191 0.530249 30.8617 0.5 29.9959 0.5C29.13 0.5 26.4726 0.53025 23.4319 0.852331C20.3764 1.176 16.9969 1.78856 14.6516 2.92522C11.5521 4.42923 10.0347 7.52075 8.86876 9.92322L8.86393 9.93316L8.86382 9.93311L8.85382 9.95261L8.73493 10.1844L8.47686 10.2198C8.45375 10.2229 8.43115 10.2285 8.40949 10.2363L8.29777 10.2765L8.1799 10.2622C8.11645 10.2545 8.05257 10.2504 7.98861 10.25H6.03608H6.03161V10.25C5.64305 10.2465 5.26937 10.3856 4.98437 10.6366C4.70069 10.8865 4.5258 11.2283 4.49015 11.5936C4.47448 11.7973 4.50378 12.0021 4.5764 12.1945C4.64949 12.3881 4.76497 12.565 4.91578 12.7127L4.92157 12.7184L4.92153 12.7184C5.02442 12.8226 5.10201 12.9496 5.14714 13.0898C5.19228 13.2302 5.20343 13.3791 5.1795 13.5248C5.15558 13.6703 5.0974 13.8076 5.0105 13.9259C4.92421 14.0433 4.81213 14.1386 4.68373 14.2052C3.56651 14.7948 2.64298 15.2911 2.08416 16.0171L1.68794 15.7121L2.08489 16.0162C2.08052 16.0219 2.07588 16.0279 2.07099 16.0342C1.85716 16.3109 1.15243 17.2229 0.714425 22.0022C0.466004 24.7559 0.430886 27.5891 0.622394 29.392C1.02886 33.1856 1.79002 35.4695 1.81409 35.5408C1.90151 35.7996 2.06303 36.0307 2.28175 36.2063C2.50059 36.3819 2.7674 36.4945 3.0515 36.5293L3.49063 36.5832V37.0256V37.05C3.49063 37.4304 3.64552 37.7979 3.92553 38.0708C4.20597 38.3442 4.58897 38.5 4.99093 38.5H11.992C12.3939 38.5 12.7769 38.3442 13.0574 38.0708C13.3374 37.7979 13.4923 37.4304 13.4923 37.05V36.55H13.9923C15.0014 36.55 15.6986 36.3767 16.4869 36.1782C17.6596 35.8703 18.8583 35.6654 20.0684 35.5659C23.8988 35.2099 27.7062 35.0875 29.9959 35.0875C32.2386 35.0875 36.2134 35.2098 40.0507 35.5659M55.5471 13.7694L40.0535 35.5662C40.0526 35.5661 40.0516 35.566 40.0507 35.5659M55.5471 13.7694L55.3149 14.2123C56.4302 14.797 57.3512 15.2944 57.9156 16.0251L57.9163 16.026C57.9201 16.031 57.9242 16.0361 57.9284 16.0415C58.138 16.3096 58.8467 17.2161 59.2848 22.0096C59.5357 24.7675 59.5683 27.5958 59.3768 29.4003C58.9702 33.1958 58.2085 35.4801 58.1851 35.5494C58.0974 35.8086 57.9353 36.04 57.716 36.2155C57.4964 36.3913 57.2288 36.5035 56.944 36.5377L56.5036 36.5906V37.0342V37.0488C56.5036 37.4292 56.3487 37.7966 56.0687 38.0696C55.7882 38.343 55.4052 38.4988 55.0033 38.4988H48.0023C47.6003 38.4988 47.2173 38.343 46.9369 38.0696C46.6568 37.7966 46.502 37.4292 46.502 37.0488V36.5578L46.0111 36.5489C45.0739 36.5317 44.3997 36.3691 43.6457 36.1805M55.5471 13.7694C55.4855 13.7377 55.4322 13.6923 55.3916 13.6371C55.351 13.5818 55.3241 13.5181 55.3131 13.451C55.3021 13.3839 55.3072 13.3151 55.328 13.2503C55.3489 13.1854 55.385 13.1262 55.4333 13.0772C55.6352 12.8776 55.7904 12.6377 55.8882 12.3741C55.9859 12.1105 56.024 11.8294 55.9997 11.5501L43.6457 36.1805M40.0507 35.5659C41.2654 35.6656 42.4685 35.8713 43.6457 36.1805M40.0507 35.5659C40.0498 35.5658 40.049 35.5658 40.0482 35.5657L43.6457 36.1805M11.4534 11.4268C11.3423 11.6556 11.2929 11.9091 11.3105 12.1629C11.3282 12.4167 11.4122 12.6609 11.5535 12.8723C11.6947 13.0837 11.8881 13.2548 12.1143 13.3705C12.3403 13.4863 12.5922 13.5433 12.8461 13.5368L12.8465 13.5368C14.1637 13.5021 15.9332 13.4426 17.872 13.3775C22.0825 13.236 27.0909 13.0677 29.9959 13.0677C32.9343 13.0677 38.0259 13.2359 42.264 13.3758C44.1446 13.4379 45.8571 13.4944 47.1389 13.5283L47.1394 13.5283C47.3932 13.5347 47.6451 13.4778 47.8712 13.362C48.0973 13.2462 48.2908 13.0751 48.432 12.8638C48.5733 12.6524 48.6573 12.4082 48.6749 12.1544C48.6925 11.9015 48.6435 11.649 48.5334 11.4209C48.5329 11.42 48.5325 11.4191 48.532 11.4182L48.4093 11.1585L48.4093 11.1585L48.4071 11.1538L48.3994 11.1379C47.9019 10.1131 47.3522 8.98076 46.666 7.98081C45.9748 6.97361 45.1211 6.0639 43.9956 5.51748C42.4498 4.76465 40.1238 4.23859 37.627 3.89818C35.1171 3.55598 32.385 3.39512 29.9959 3.39512C27.6066 3.39512 24.8744 3.55722 22.3646 3.90002C19.8678 4.24105 17.5422 4.76709 15.9968 5.51718C14.8712 6.06345 14.0161 6.97277 13.324 7.98014C12.6333 8.98543 12.0817 10.1242 11.5842 11.1548L11.584 11.1547L11.5787 11.1665C11.5524 11.2248 11.5252 11.2802 11.4944 11.3428C11.4815 11.3693 11.4679 11.397 11.4534 11.4268ZM11.4534 11.4268L11.9026 11.6449L11.4533 11.4269C11.4534 11.4269 11.4534 11.4268 11.4534 11.4268ZM4.79198 17.0557L4.793 17.0555C6.43457 16.8093 7.43456 17.0979 9.71288 17.7555C9.86895 17.8005 10.031 17.8473 10.1997 17.8957C12.01 18.4148 13.3379 19.1119 14.1184 19.6861C14.5216 19.9792 14.567 20.466 14.4662 20.8092C14.3649 21.1548 14.0665 21.531 13.576 21.5746C11.4088 21.8286 9.22778 21.9539 7.04498 21.95L4.79198 17.0557ZM4.79198 17.0557C4.41977 17.1123 4.10938 17.2338 3.8847 17.4712C3.66541 17.7029 3.59219 17.9807 3.54922 18.1833C3.43836 18.7011 3.42459 19.2097 3.61149 20.0425M4.79198 17.0557L3.61149 20.0425M18.811 31.5678C20.1001 31.711 22.3629 31.7045 26.1403 31.6936C27.2921 31.6903 28.5846 31.6866 30.0334 31.6866C31.482 31.6866 32.7746 31.6903 33.9265 31.6936C37.2123 31.7031 39.3526 31.7092 40.7025 31.6165V31.6409L41.2614 31.5746C42.2029 31.463 43.2451 31.0073 43.8858 30.3315C44.2109 29.9887 44.4616 29.5571 44.4978 29.0582C44.5348 28.5473 44.3411 28.0479 43.9329 27.5954C43.688 27.3201 43.3357 27.0868 42.9304 26.8843C42.5185 26.6786 42.0208 26.4897 41.4577 26.3166C40.3314 25.9703 38.9049 25.6757 37.2965 25.4414C34.0933 24.9749 32.9053 24.85 30.0209 24.85C27.3782 24.85 26.0453 25.0199 23.4995 25.3443C23.2624 25.3745 23.0148 25.4061 22.7546 25.4389C21.2076 25.6345 19.8391 25.9078 18.7238 26.2541C17.6209 26.5965 16.7147 27.0255 16.1401 27.5622L16.1382 27.564C15.6856 27.991 15.4599 28.4874 15.4927 29.0123C15.5243 29.5173 15.7899 29.9556 16.123 30.3005C16.7825 30.9831 17.8609 31.4647 18.811 31.5678ZM18.811 31.5678C18.8108 31.5678 18.8105 31.5678 18.8103 31.5678L18.8655 31.0708L18.8116 31.5679C18.8114 31.5679 18.8112 31.5679 18.811 31.5678ZM3.61149 20.0425C3.78313 20.819 4.3339 21.3038 4.97049 21.5816C5.5964 21.8548 6.34528 21.9499 7.04407 21.95L3.61149 20.0425ZM46.2885 21.5731C48.4986 21.8239 50.7217 21.9493 52.9467 21.9488H52.9468C53.6428 21.9488 54.3928 21.855 55.02 21.5826C55.6569 21.3059 56.21 20.8214 56.38 20.0422L56.3803 20.0422C56.5214 19.4061 56.5449 18.7504 56.4496 18.1062C56.4281 17.9125 56.3476 17.6984 56.2164 17.5164C56.0782 17.3245 55.8546 17.1303 55.5371 17.0689L55.537 17.0688C54.0838 16.7879 52.4359 17.1351 49.792 17.8945C47.9894 18.4121 46.6412 19.0961 45.864 19.6918L45.8639 19.692C45.4842 19.9833 45.4021 20.4351 45.4767 20.7848C45.5459 21.1093 45.8014 21.5248 46.2885 21.5731Z" fill="#0066FF" stroke="#0066FF"/>
</svg>
