<svg width="150.000000" height="150.000000" viewBox="0 0 150 150" fill="none" xmlns="http://www.w3.org/2000/svg" xmlns:xlink="http://www.w3.org/1999/xlink">
	<desc>
			Created with Pixso.
	</desc>
	<defs/>
	<circle id="Ellipse 3" cx="75.000000" cy="75.000000" r="75.000000" fill="#FFFFFF"/>
	<circle id="Ellipse 3" cx="75.000000" cy="75.000000" r="74.500000" stroke="#0066FF"/>
	<path id="Vector" d="M54.75 54C52.1641 54 49.6841 55.0272 47.8557 56.8557C46.0273 58.6842 45 61.1641 45 63.75L45 67.5L105 67.5L105 63.75C105 62.4696 104.748 61.2018 104.258 60.0189C103.768 58.8359 103.05 57.7611 102.144 56.8557C101.239 55.9503 100.164 55.2322 98.9812 54.7422C97.7983 54.2522 96.5303 54 95.25 54L54.75 54ZM105 72L45 72L45 86.25C45 88.8359 46.0273 91.3158 47.8557 93.1443C49.6841 94.9728 52.1641 96 54.75 96L95.25 96C96.5303 96 97.7983 95.7478 98.9812 95.2578C100.164 94.7678 101.239 94.0497 102.144 93.1443C103.05 92.2389 103.768 91.1641 104.258 89.9811C104.748 88.7982 105 87.5304 105 86.25L105 72ZM86.25 82.5L93.75 82.5C94.3467 82.5 94.9189 82.7371 95.3411 83.159C95.7629 83.581 96 84.1533 96 84.75C96 85.3467 95.7629 85.919 95.3411 86.341C94.9189 86.7629 94.3467 87 93.75 87L86.25 87C85.6533 87 85.0811 86.7629 84.6589 86.341C84.2371 85.919 84 85.3467 84 84.75C84 84.1533 84.2371 83.581 84.6589 83.159C85.0811 82.7371 85.6533 82.5 86.25 82.5Z" fill-rule="nonzero" fill="#0066FF"/>
	<path id="Vector" d="M45 63.75C45 61.1641 46.0273 58.6842 47.8557 56.8557C49.6841 55.0272 52.1641 54 54.75 54L95.25 54C96.5303 54 97.7983 54.2522 98.9812 54.7422C100.164 55.2322 101.239 55.9503 102.144 56.8557C103.05 57.7611 103.768 58.8359 104.258 60.0189C104.748 61.2018 105 62.4696 105 63.75L105 67.5L45 67.5L45 63.75ZM46 66.5L104 66.5L104 63.75Q104 62.8798 103.833 62.0427Q103.667 61.2056 103.334 60.4015Q103.001 59.5975 102.527 58.8879Q102.052 58.1782 101.437 57.5628Q100.822 56.9474 100.112 56.4733Q99.4026 55.9991 98.5984 55.6661Q97.7944 55.3331 96.9575 55.1665Q96.1204 55 95.25 55L54.75 55Q52.9377 55 51.3911 55.6407Q49.8442 56.2814 48.5627 57.5628Q47.2815 58.8442 46.6406 60.391Q46 61.9378 46 63.75L46 66.5ZM46 72L105 72L105 86.25C105 87.5304 104.748 88.7982 104.258 89.9811C103.768 91.1641 103.05 92.2389 102.144 93.1443C101.239 94.0497 100.164 94.7678 98.9812 95.2578C97.7983 95.7478 96.5303 96 95.25 96L54.75 96C52.1641 96 49.6841 94.9728 47.8557 93.1443C46.0273 91.3158 45 88.8359 45 86.25L45 72L46 72ZM46 73L46 86.25Q46 88.0622 46.6406 89.6089Q47.2815 91.1558 48.5627 92.4372Q49.8442 93.7186 51.3911 94.3593Q52.9377 95 54.75 95L95.25 95Q96.1206 95 96.958 94.8334Q97.7949 94.6669 98.5984 94.3339Q99.4026 94.0009 100.112 93.5266Q100.822 93.0525 101.437 92.4372Q102.052 91.8218 102.527 91.1122Q103.001 90.4025 103.334 89.5985Q103.667 88.7944 103.833 87.9573Q104 87.1202 104 86.25L104 73L46 73ZM94.9976 81.738Q94.4231 81.5 93.75 81.5L86.25 81.5Q85.5769 81.5 85.0024 81.738Q84.4277 81.976 83.9519 82.4519Q83.4758 82.9279 83.238 83.5024Q83 84.0769 83 84.75Q83 85.4231 83.238 85.9976Q83.4761 86.5721 83.9519 87.0481Q84.4277 87.524 85.0024 87.762Q85.5769 88 86.25 88L93.75 88Q94.4231 88 94.9976 87.762Q95.5723 87.524 96.0481 87.0481Q96.5242 86.5721 96.762 85.9976Q97 85.4231 97 84.75Q97 84.077 96.762 83.5024Q96.5242 82.9279 96.0481 82.4519Q95.5723 81.976 94.9976 81.738ZM95.3411 83.159C94.9189 82.7371 94.3467 82.5 93.75 82.5L86.25 82.5C85.6533 82.5 85.0811 82.7371 84.6589 83.159C84.2371 83.581 84 84.1533 84 84.75C84 85.3467 84.2371 85.919 84.6589 86.341C85.0811 86.7629 85.6533 87 86.25 87L93.75 87C94.3467 87 94.9189 86.7629 95.3411 86.341C95.7629 85.919 96 85.3467 96 84.75C96 84.1533 95.7629 83.581 95.3411 83.159Z" fill-rule="evenodd" fill="#0066FF"/>
</svg>
